# xmcd CD database file
#
# Track frame offsets:
#	151
#	31653
#	51160
#	86927
#	108726
#	129104
#	149773
#
# Disc length: 2253 seconds
#
# Revision: 0
# Processed by: cddbd v1.4PL0 Copyright (c) Steve Scherf et al.
# Submitted via: Feurio! 1.65 - http://www.feurio.com
#
DISCID=6008cb07
DTITLE=Minnie Riperton - Love Lives Forever
DYEAR=1900
DGENRE=blues
TTITLE0=Here We Go
TTITLE1=I'm In Love Again
TTITLE2=Strange Affair
TTITLE3=Island In The Sun
TTITLE4=Give Me Time
TTITLE5=You Take My Breath Away
TTITLE6=The Song Of Life
EXTD=
EXTT0=
EXTT1=
EXTT2=
EXTT3=
EXTT4=
EXTT5=
EXTT6=
PLAYORDER=
